<svg width="134" height="134" viewBox="0 0 134 134" fill="none" xmlns="http://www.w3.org/2000/svg">
<circle cx="67" cy="67" r="65.5" stroke="#00C3DE" stroke-width="3"/>
<path d="M88.7 64.1C89.4333 64.1 90.0667 64.3667 90.6 64.9C91.1333 65.3667 91.4 65.9333 91.4 66.6C91.4 67.3333 91.1333 67.9667 90.6 68.5C90.0667 68.9667 89.4333 69.2 88.7 69.2H69.5V88.3C69.5 89.0333 69.2333 89.6667 68.7 90.2C68.2333 90.7333 67.6667 91 67 91C66.3333 91 65.7333 90.7333 65.2 90.2C64.7333 89.6667 64.5 89.0333 64.5 88.3V69.2H45.3C44.5667 69.2 43.9333 68.9667 43.4 68.5C42.8667 67.9667 42.6 67.3333 42.6 66.6C42.6 65.9333 42.8667 65.3667 43.4 64.9C43.9333 64.3667 44.5667 64.1 45.3 64.1H64.5V44.9C64.5 44.1667 64.7333 43.5333 65.2 43C65.7333 42.4667 66.3333 42.2 67 42.2C67.6667 42.2 68.2333 42.4667 68.7 43C69.2333 43.5333 69.5 44.1667 69.5 44.9V64.1H88.7Z" fill="#00C3DE"/>
</svg>
